<svg width="40" height="40" viewBox="0 0 40 40" fill="none" xmlns="http://www.w3.org/2000/svg">
<rect width="40" height="40" rx="4" fill="#E6F4FF"/>
<path d="M12 26H16V14H12V26ZM18 26H22V14H18V26ZM24 26H28V14H24V26ZM12 28C11.45 28 10.9792 27.8042 10.5875 27.4125C10.1958 27.0208 10 26.55 10 26V14C10 13.45 10.1958 12.9792 10.5875 12.5875C10.9792 12.1958 11.45 12 12 12H28C28.55 12 29.0208 12.1958 29.4125 12.5875C29.8042 12.9792 30 13.45 30 14V26C30 26.55 29.8042 27.0208 29.4125 27.4125C29.0208 27.8042 28.55 28 28 28H12Z" fill="#1677FF"/>
</svg>
