<svg width="40" height="40" viewBox="0 0 40 40" fill="none" xmlns="http://www.w3.org/2000/svg">
<rect width="40" height="40" rx="4" fill="#E6F4FF"/>
<path d="M20 23C20.2833 23 20.5208 22.9042 20.7125 22.7125C20.9042 22.5208 21 22.2833 21 22C21 21.7167 20.9042 21.4792 20.7125 21.2875C20.5208 21.0958 20.2833 21 20 21C19.7167 21 19.4792 21.0958 19.2875 21.2875C19.0958 21.4792 19 21.7167 19 22C19 22.2833 19.0958 22.5208 19.2875 22.7125C19.4792 22.9042 19.7167 23 20 23ZM19 19H21V13H19V19ZM10 30V12C10 11.45 10.1958 10.9792 10.5875 10.5875C10.9792 10.1958 11.45 10 12 10H28C28.55 10 29.0208 10.1958 29.4125 10.5875C29.8042 10.9792 30 11.45 30 12V24C30 24.55 29.8042 25.0208 29.4125 25.4125C29.0208 25.8042 28.55 26 28 26H14L10 30ZM13.15 24H28V12H12V25.125L13.15 24Z" fill="#1677FF"/>
</svg>
