<svg width="32" height="32" viewBox="0 0 32 32" fill="none" xmlns="http://www.w3.org/2000/svg">
<path d="M13.9812 28.7095L3.97562 21.7276C3.103 21.1185 2.66669 20.319 2.66669 19.3291C2.66669 18.3392 3.103 17.5425 3.97562 16.9389L13.9812 9.95699C14.5848 9.54117 15.2571 9.33325 15.998 9.33325C16.7388 9.33325 17.4125 9.54117 18.0189 9.95699L28.0244 16.9389C28.897 17.548 29.3334 18.3475 29.3334 19.3374C29.3334 20.3273 28.897 21.124 28.0244 21.7276L18.0189 28.7095C17.4152 29.1253 16.7429 29.3333 16.0021 29.3333C15.2612 29.3333 14.5876 29.1253 13.9812 28.7095Z" fill="url(#paint0_linear_1003_11)"/>
<path d="M13.9812 22.043L3.97562 15.0611C3.103 14.452 2.66669 13.6525 2.66669 12.6626C2.66669 11.6727 3.103 10.876 3.97562 10.2724L13.9812 3.29049C14.5848 2.87466 15.2571 2.66675 15.998 2.66675C16.7388 2.66675 17.4125 2.87466 18.0189 3.29049L28.0244 10.2724C28.897 10.8815 29.3334 11.681 29.3334 12.6709C29.3334 13.6608 28.897 14.4575 28.0244 15.0611L18.0189 22.043C17.4152 22.4588 16.7429 22.6667 16.0021 22.6667C15.2612 22.6667 14.5876 22.4588 13.9812 22.043Z" fill="#5798FF"/>
<defs>
<linearGradient id="paint0_linear_1003_11" x1="16" y1="9.33325" x2="16" y2="29.3333" gradientUnits="userSpaceOnUse">
<stop stop-color="#0047AB"/>
<stop offset="1" stop-color="#3F89FF"/>
</linearGradient>
</defs>
</svg>
