<svg width="40" height="40" viewBox="0 0 40 40" fill="none" xmlns="http://www.w3.org/2000/svg">
<rect width="40" height="40" rx="4" fill="#E6F4FF"/>
<path d="M13.1 24.05C12.7333 23.4167 12.4583 22.7667 12.275 22.1C12.0917 21.4333 12 20.75 12 20.05C12 17.8167 12.775 15.9167 14.325 14.35C15.875 12.7833 17.7667 12 20 12H20.175L18.575 10.4L19.975 9L23.975 13L19.975 17L18.575 15.6L20.175 14H20C18.3333 14 16.9167 14.5875 15.75 15.7625C14.5833 16.9375 14 18.3667 14 20.05C14 20.4833 14.05 20.9083 14.15 21.325C14.25 21.7417 14.4 22.15 14.6 22.55L13.1 24.05ZM20.025 31L16.025 27L20.025 23L21.425 24.4L19.825 26H20C21.6667 26 23.0833 25.4125 24.25 24.2375C25.4167 23.0625 26 21.6333 26 19.95C26 19.5167 25.95 19.0917 25.85 18.675C25.75 18.2583 25.6 17.85 25.4 17.45L26.9 15.95C27.2667 16.5833 27.5417 17.2333 27.725 17.9C27.9083 18.5667 28 19.25 28 19.95C28 22.1833 27.225 24.0833 25.675 25.65C24.125 27.2167 22.2333 28 20 28H19.825L21.425 29.6L20.025 31Z" fill="#1677FF"/>
</svg>
