<svg width="40" height="40" viewBox="0 0 40 40" fill="none" xmlns="http://www.w3.org/2000/svg">
<rect width="40" height="40" rx="4" fill="#E6F4FF"/>
<path fill-rule="evenodd" clip-rule="evenodd" d="M13 29C12.45 29 11.9792 28.8042 11.5875 28.4125C11.1958 28.0208 11 27.55 11 27V13C11 12.45 11.1958 11.9792 11.5875 11.5875C11.9792 11.1958 12.45 11 13 11H27C27.55 11 28.0208 11.1958 28.4125 11.5875C28.8042 11.9792 29 12.45 29 13V27C29 28.6 27.6667 29 27 29H13ZM27 16V27H13V16H27ZM27 14H13V13H27V14Z" fill="#1677FF"/>
</svg>
